<?xml version="1.0" encoding="utf-8"?>
<!-- Generator: Adobe Illustrator 18.1.1, SVG Export Plug-In . SVG Version: 6.00 Build 0)  -->
<svg version="1.1" id="Ebene_1" xmlns="http://www.w3.org/2000/svg" xmlns:xlink="http://www.w3.org/1999/xlink" x="0px" y="0px"
	 viewBox="0 0 311.8 311.8" enable-background="new 0 0 311.8 311.8" xml:space="preserve">
<path d="M29.8,214.4c-4.7-11.6,86.1,2.4,92.6-16.7c17.5-51.5,41-77.9,45.2-80.6c5.3-3.3-10.9-1.3-8.6-27.7s-14.9-52.6-1-49.7
	c13.8,2.9,27.9,17,27.9,17s17.4-10.9,43.8-2.3c0,0,25-18.5,25.6-19.1c0.6-0.6,3,37.8-2.3,44.5c-5.2,6.7,9,19.6-10.8,44.2
	c-5,6.3,9.8,6.8,4.2,37.7c-0.7,3.9-13.1,38.7,5.9,67.3c0,0,10.5,9.8,5.4,15.9c-1.2,1.5-9.7,6-21.4,1.3c-9.7-4-20.7-21-20.7-21
	c-6.9-4.1-9.7,10.8-7.4,14.2c0,0,3.5,21.3-22.1,15.5c-20.1-4.6-5.2-21.3-9.2-22c-14.6-2.6-16.9-9.6-16.2-4.9
	c0.6,4.6,2.6,11.3-6.6,13.5c-0.6,0.1-18.7,6.1-24.3,1.9c-5.7-4.2-6.3-9.9,0.4-15.5c0.4-0.3,0.3-0.5,0.3-0.5
	C130.7,222.5,33.7,224,29.8,214.4z"/>
</svg>
